<svg xmlns="http://www.w3.org/2000/svg" viewBox="0 0 400 140">
  <defs>
    <style>
      .cls-1, .cls-15, .cls-9 {
        fill: none;
      }

      .cls-1, .cls-2 {
        stroke: #00bcf2;
      }

      .cls-1, .cls-10, .cls-2, .cls-9 {
        stroke-miterlimit: 10;
      }

      .cls-1, .cls-10, .cls-15, .cls-2, .cls-9 {
        stroke-width: 2px;
      }

      .cls-1 {
        stroke-dasharray: 3 3;
      }

      .cls-10, .cls-2, .cls-6 {
        fill: #fff;
      }

      .cls-3 {
        fill: #ff9f2b;
      }

      .cls-4 {
        fill: #ffb900;
      }

      .cls-5 {
        fill: #556a8a;
      }

      .cls-7 {
        fill: #e5e5e5;
      }

      .cls-8 {
        fill: #2bc7f4;
      }

      .cls-10, .cls-9 {
        stroke: #556a8a;
      }

      .cls-11 {
        fill: #bad80a;
      }

      .cls-12 {
        fill: #d1e55c;
      }

      .cls-13 {
        fill: #55d2f6;
      }

      .cls-14 {
        fill: #a7a9ac;
      }

      .cls-15 {
        stroke: #fff;
        stroke-linecap: round;
        stroke-linejoin: round;
      }
    </style>
  </defs>
  <title>nuget-get-started-create-packages</title>
  <g id="ICONS">
    <g>
      <line class="cls-1" x1="117" y1="74.42" x2="312" y2="74.42"/>
      <path class="cls-2" d="M115.47,57.76v-.54a21.67,21.67,0,0,0-.7-5.38A19.49,19.49,0,0,0,82.74,38C78,32,72,29.07,63.86,29.07c-14.26,0-25,12.44-25.26,26.46,0,1,.24,1.69.24,2.66C31.35,61.82,27,68.1,27,76.08c0,11.4,9,20.54,20.85,21.21,1.09,7.92,8.19,15.27,20.35,15.27,10.26,0,16.37.83,23.85-7.59A25.2,25.2,0,0,0,104,108.22c14.37,0,26-12.73,26-27.11A26,26,0,0,0,115.47,57.76Z"/>
      <g>
        <g>
          <g>
            <path class="cls-3" d="M61.73,93.95c-.89.29-1.84.56-2.83.83,5.94-24.67,17.65-20.21,17.65-20.21l1.91,1.81.07.23C78.94,78.25,80.53,88,61.73,93.95Z"/>
            <path class="cls-4" d="M61.73,93.95c5.81-20.31,15.79-17.66,16.8-17.33C78.94,78.25,80.53,88,61.73,93.95Z"/>
            <polygon class="cls-5" points="79.46 81.28 71.16 72.98 77.8 71.32 80.91 74.44 79.46 81.28"/>
          </g>
          <polygon class="cls-5" points="81.11 62.89 58.7 62.06 55.38 58.74 74.47 49.6 82.45 52.6 81.11 62.89"/>
          <polygon class="cls-5" points="90.6 69.66 91.43 92.07 94.75 95.39 103.88 76.3 100.89 68.32 90.6 69.66"/>
          <g>
            <path class="cls-6" d="M86.13,79.54h-.25l-.2-.18L73.85,67l0-.29A49,49,0,0,1,87.35,42.92c10.74-10.68,35.78-15.17,36.84-15.36l.82-.14-.14.82s-.44,2.61-1.33,6.4c-2.44,10.26-6.81,24-13.77,31C98.91,76.51,87.12,79.54,86.13,79.54Z"/>
            <path class="cls-7" d="M122.89,36.09c-2,8.35-6.29,22.81-13.62,30.17-10.82,10.9-22.6,13.16-23.21,13.28l-6.6-6.6s2.1-12.12,13.29-23.25C100.1,42.39,114.53,38.08,122.89,36.09Z"/>
            <path class="cls-8" d="M103,33.94l1.07-.39a122.11,122.11,0,0,1,19.75-5.32l1-.17-.17,1a122.35,122.35,0,0,1-5.32,19.75l-.39,1.07Z"/>
            <path class="cls-9" d="M86.13,79.54h-.25l-.2-.18L73.85,67l0-.29A49,49,0,0,1,87.35,42.92c10.74-10.68,35.78-15.17,36.84-15.36l.82-.14-.14.82s-.44,2.61-1.33,6.4c-2.44,10.26-6.81,24-13.77,31C98.91,76.51,87.12,79.54,86.13,79.54Z"/>
          </g>
        </g>
        <circle class="cls-10" cx="97.81" cy="54.13" r="6"/>
      </g>
      <g>
        <circle class="cls-11" cx="224" cy="75" r="18"/>
        <path class="cls-12" d="M242,75a18,18,0,0,1-18,18V57A18,18,0,0,1,242,75Z"/>
      </g>
      <g>
        <circle class="cls-8" cx="269" cy="75" r="18"/>
        <path class="cls-13" d="M287,75a18,18,0,0,1-18,18V57A18,18,0,0,1,287,75Z"/>
      </g>
      <path class="cls-5" d="M234.92,74.51l-9.92-10v22.9h-2V64.52l-9.87,10L212,73.37l12-11.95,12,11.95Z"/>
      <g>
        <g>
          <rect class="cls-10" x="307" y="48" width="62" height="48"/>
          <rect class="cls-7" x="308" y="57" width="6" height="38"/>
          <rect class="cls-7" x="362" y="57" width="6" height="38"/>
          <rect class="cls-5" x="303" y="45" width="70" height="12"/>
        </g>
        <rect class="cls-5" x="327" y="65" width="22" height="2"/>
      </g>
      <g>
        <circle class="cls-8" cx="171" cy="73.92" r="25"/>
        <path class="cls-13" d="M196,73.92a25,25,0,0,1-25,25v-50A25,25,0,0,1,196,73.92Z"/>
        <g>
          <rect class="cls-6" x="154" y="59" width="2" height="2"/>
          <rect class="cls-14" x="157" y="59" width="3" height="2"/>
          <rect class="cls-6" x="162" y="59" width="20" height="2"/>
          <rect class="cls-6" x="154" y="63" width="2" height="2"/>
          <rect class="cls-14" x="157" y="63" width="3" height="2"/>
          <rect class="cls-6" x="162" y="63" width="20" height="2"/>
          <rect class="cls-6" x="154" y="67" width="2" height="2"/>
          <rect class="cls-14" x="157" y="67" width="3" height="2"/>
          <rect class="cls-6" x="162" y="67" width="11.93" height="2"/>
          <rect class="cls-6" x="154" y="71" width="2" height="2"/>
          <rect class="cls-14" x="157" y="71" width="3" height="2"/>
          <rect class="cls-6" x="162" y="71" width="20" height="2"/>
          <rect class="cls-6" x="154" y="75" width="2" height="2"/>
          <rect class="cls-6" x="154" y="83" width="2" height="2"/>
          <rect class="cls-6" x="154" y="87" width="2" height="2"/>
          <rect class="cls-6" x="158" y="75" width="33" height="2"/>
          <rect class="cls-6" x="158" y="79" width="34" height="2"/>
          <rect class="cls-6" x="158" y="83" width="16" height="2"/>
          <rect class="cls-6" x="158" y="87" width="27" height="2"/>
        </g>
      </g>
      <polyline class="cls-15" points="258.75 75.67 265.5 82.42 280.25 67.67"/>
    </g>
  </g>
</svg>
