<svg xmlns="http://www.w3.org/2000/svg" viewBox="0 0 400 140"><defs><style>.cls-1{fill:#80def9}.cls-2{fill:#2bc7f4}.cls-3,.cls-8{fill:#fff}.cls-3{stroke:#556a8a;stroke-miterlimit:10;stroke-width:2px}.cls-4{fill:#e5e5e5}.cls-5{fill:#556a8a}.cls-6{fill:#5c2d91}.cls-7{fill:#633ba3}.cls-9{fill:#004880}</style></defs><title>nuget-get-started-what-is-nuget</title><g id="ICONS"><g><path d="M292,52.77a42.51,42.51,0,0,0-83.93-1.33,28.93,28.93,0,0,0-46.47,14.71,25.29,25.29,0,1,0-6,49.85H297.94c14.43-2.93,25.3-16.33,25.3-31.62A31.61,31.61,0,0,0,292,52.77Z" class="cls-1"/><path d="M284.19,77.34l1.44,2.41c.48,1,.48,1.44,0,1.92l-.72,1.44a1.73,1.73,0,0,1-1.69,1l-2.89-.24a1,1,0,0,0-1,1L279.13,87a1.32,1.32,0,0,0,.72,1.2l2.89.48A1.53,1.53,0,0,1,284,90.1a15.22,15.22,0,0,1,.48,1.68c.24.48.24,1-.48,1.68l-2.17,1.93a1.08,1.08,0,0,0,0,1.2l1.44,1.93a1.06,1.06,0,0,0,1.21.24l2.41-1.44a1.51,1.51,0,0,1,1.93-.24c.48.48,1,.72,1.21,1,.72,0,1,.48,1,1.44v2.89a1.5,1.5,0,0,0,.72,1.2l2.41.24a1.32,1.32,0,0,0,1.2-.72l.48-2.89a1.79,1.79,0,0,1,1.44-1.44c.48,0,1-.24,1.45-.24.48-.24,1-.24,1.68.48l2.17,1.92a.84.84,0,0,0,1.2.24l1.93-1.44a1.05,1.05,0,0,0,.24-1.2l-1.69-2.41a1.79,1.79,0,0,1,0-1.92v-.24a5.27,5.27,0,0,0,.72-1.2,1.74,1.74,0,0,1,1.69-1l2.89.24a1,1,0,0,0,1-1l.48-2.17a1.23,1.23,0,0,0-1-1.2l-2.65-.48a2.73,2.73,0,0,1-1.44-1.44c0-.48-.24-1-.24-1.44a1.62,1.62,0,0,1,.48-1.92L308,80.47a.84.84,0,0,0,.24-1.2l-1.45-1.93a1.35,1.35,0,0,0-1.44-.24l-2.17,1.44a1.5,1.5,0,0,1-2.17,0,1.84,1.84,0,0,0-1.21-.48v-.24a1.39,1.39,0,0,1-1-1.44V73.49c0-.72-.48-1.2-.72-1.2l-2.41-.24a1.29,1.29,0,0,0-1,.72l-.72,2.89a1.91,1.91,0,0,1-1.21,1.44c-.48,0-1,.24-1.44.24a1.58,1.58,0,0,1-1.93-.48l-1.93-1.92a1.14,1.14,0,0,0-1.45-.24l-1.68,1.44a1.06,1.06,0,0,0-.24,1.2m15.41,7a5.79,5.79,0,0,1-1.21,8.18,5.72,5.72,0,0,1-7.95-1,5.56,5.56,0,0,1,1-8.18,6,6,0,0,1,8.19,1" class="cls-2"/><g><g><rect width="78" height="61" x="194" y="40.1" class="cls-3"/><rect width="8" height="52" x="195" y="49" class="cls-4"/><rect width="8" height="51" x="263" y="49" class="cls-4"/><rect width="88" height="16" x="189" y="36" class="cls-5"/></g><rect width="32" height="3" x="218" y="60" class="cls-5"/></g><g><circle cx="194.69" cy="97.11" r="25.11" class="cls-6" transform="translate(-11.64 166.11) rotate(-45)"/><path d="M212.45,79.35a25.11,25.11,0,0,1,0,35.51L176.93,79.35A25.11,25.11,0,0,1,212.45,79.35Z" class="cls-7"/><g><path d="M173,103.83a1.13,1.13,0,0,1-1.14-1.14,1.12,1.12,0,0,1,.33-.82,1.09,1.09,0,0,1,.81-.33,1.12,1.12,0,0,1,.44.09,1.21,1.21,0,0,1,.36.24,1.14,1.14,0,0,1,.25.36,1.13,1.13,0,0,1,.09.46,1.06,1.06,0,0,1-.09.44,1.24,1.24,0,0,1-.25.36,1.15,1.15,0,0,1-.36.24A1.12,1.12,0,0,1,173,103.83Z" class="cls-8"/><path d="M189,103.59l-9.44-13.66-.35-.53a3.42,3.42,0,0,1-.28-.53h-.06q0,.21,0,.59t0,.95v13.18h-1.58v-17h1.74l9.29,13.49.39.6.31.52h.06q0-.39-.07-.88t0-1.08V86.57h1.59v17Z" class="cls-8"/><path d="M194.41,103.59v-17h8.29V88H196v6.24h6.22v1.42H196v6.47h7.09v1.44Z" class="cls-8"/><path d="M210.94,88v15.57h-1.58V88h-4.9V86.57h11.39V88Z" class="cls-8"/></g></g></g><g><g><path d="M138,40.12c9.54.54,17.86,8.4,18.6,18,.52,6.72.31,26.57-.3,29.62a20.3,20.3,0,0,1-19.55,16.23q-11.73.18-23.47,0A20.52,20.52,0,0,1,93,84q-.33-12,0-24.11c.3-11.22,9.32-19.76,20.8-19.94C117.51,39.92,133.7,39.88,138,40.12Zm11.11,43.58a13.57,13.57,0,1,0-13.63,13.57A13.64,13.64,0,0,0,149.16,83.71ZM108.71,49.3a8.5,8.5,0,1,0,8.46,8.58A8.53,8.53,0,0,0,108.71,49.3Z" class="cls-9"/><path d="M149.16,83.71a13.57,13.57,0,1,1-13.57-13.63A13.63,13.63,0,0,1,149.16,83.71Z" class="cls-8"/><path d="M108.71,49.3a8.5,8.5,0,1,1-8.56,8.49A8.52,8.52,0,0,1,108.71,49.3Z" class="cls-8"/></g><circle cx="82.25" cy="31.83" r="6.75" class="cls-9"/></g></g></svg>