<svg xmlns="http://www.w3.org/2000/svg" viewBox="0 0 400 140"><defs><style>.cls-1,.cls-8{fill:none}.cls-1,.cls-2,.cls-8{stroke:#556a8a;stroke-miterlimit:10;stroke-width:2px}.cls-1{stroke-dasharray:3 3}.cls-10,.cls-2{fill:#fff}.cls-3{fill:#e5e5e5}.cls-4{fill:#556a8a}.cls-5{fill:#ffb900}.cls-6{fill:#ffc52b}.cls-7{fill:#55d2f6}.cls-9{fill:#004880}</style></defs><title>nuget-get-started-quickstarts</title><g id="ICONS"><g><line x1="158" x2="271" y1="72" y2="72" class="cls-1"/><rect width="78" height="61" x="268" y="40.1" class="cls-2"/><rect width="8" height="52" x="269" y="48" class="cls-3"/><rect width="8" height="52" x="337" y="48" class="cls-3"/><rect width="88" height="16" x="263" y="36" class="cls-4"/></g><circle cx="107.5" cy="71.5" r="50.5" class="cls-2"/><g><path d="M210.6,65.35l15.4-26H207l-25,38h17.6L183.37,107,195,96.69,230.4,65.35Z" class="cls-5"/><path d="M230.4,65.35H210.6l15.4-26H213l-25,38h17.6L195,96.69Z" class="cls-6"/></g><g><polygon points="134 58.5 113 58.5 113 38.5 134 58.5" class="cls-7"/><path d="M112.88,39H88a1,1,0,0,0-1,1V100a1,1,0,0,0,1,1H132a1,1,0,0,0,1-1V58.37Z" class="cls-8"/><rect width="16" height="60" x="88" y="40" class="cls-3"/><polyline points="112 39 112 59 133 59" class="cls-8"/><line x1="102" x2="118" y1="64" y2="64" class="cls-8"/><line x1="102" x2="118" y1="78" y2="78" class="cls-8"/><line x1="102" x2="118" y1="91" y2="91" class="cls-8"/></g><path d="M97.11,58.21V68H95.56V60.11a4.94,4.94,0,0,1-.9.51,7.53,7.53,0,0,1-1.1.37V59.67l.75-.27q.36-.14.71-.31t.71-.39q.36-.21.74-.49Z" class="cls-4"/><path d="M99.06,82H93v-.74a2.77,2.77,0,0,1,.13-.85,3.41,3.41,0,0,1,.34-.75A4.19,4.19,0,0,1,94,79q.29-.31.61-.6t.67-.56l.67-.54q.31-.26.56-.51a3.43,3.43,0,0,0,.43-.52,2.34,2.34,0,0,0,.28-.56,2,2,0,0,0,.1-.64,1.73,1.73,0,0,0-.12-.66,1.29,1.29,0,0,0-.33-.47,1.41,1.41,0,0,0-.5-.29,2,2,0,0,0-.63-.1,2.89,2.89,0,0,0-1.2.27,4.09,4.09,0,0,0-1.17.82V73.14a4.82,4.82,0,0,1,.59-.38,4,4,0,0,1,.62-.27,3.86,3.86,0,0,1,.67-.16,5.06,5.06,0,0,1,.75-.05,3.82,3.82,0,0,1,1.17.17,2.51,2.51,0,0,1,.9.5,2.2,2.2,0,0,1,.58.82,3,3,0,0,1,.2,1.13,3.53,3.53,0,0,1-.14,1,3.38,3.38,0,0,1-.41.86,4.48,4.48,0,0,1-.64.76c-.25.24-.53.49-.83.74l-.77.61q-.38.3-.69.58a3.29,3.29,0,0,0-.5.57,1,1,0,0,0-.19.57v0h4.32Z" class="cls-4"/><path d="M93.21,95.65V94.19a3.31,3.31,0,0,0,2.11.74,2.46,2.46,0,0,0,1.53-.43,1.4,1.4,0,0,0,.57-1.17q0-1.63-2.49-1.63h-.74V90.45h.71q2.21,0,2.21-1.54T95.38,87.5a2.82,2.82,0,0,0-1.81.69V86.81a4.63,4.63,0,0,1,2.3-.55,3.09,3.09,0,0,1,2,.64,2,2,0,0,1,.77,1.64A2.34,2.34,0,0,1,96.77,91v0a2.52,2.52,0,0,1,1.64.72,2.16,2.16,0,0,1,.6,1.56,2.55,2.55,0,0,1-1,2.08,3.9,3.9,0,0,1-2.55.79A4.35,4.35,0,0,1,93.21,95.65Z" class="cls-4"/><g><g><path d="M315.56,64a10.07,10.07,0,0,1,9.3,9,125.2,125.2,0,0,1-.15,14.81A10.15,10.15,0,0,1,314.93,96q-5.87.09-11.74,0A10.26,10.26,0,0,1,293,86q-.17-6,0-12.06A10.26,10.26,0,0,1,303.42,64C305.28,64,313.38,63.88,315.56,64Zm5.56,21.85a6.78,6.78,0,1,0-6.82,6.78A6.82,6.82,0,0,0,321.11,85.85Zm-20.22-17.2a4.25,4.25,0,1,0,4.23,4.29A4.27,4.27,0,0,0,300.89,68.64Z" class="cls-9"/><path d="M320.83,85.84a6.5,6.5,0,1,1-6.5-6.51A6.52,6.52,0,0,1,320.83,85.84Z" class="cls-10"/><path d="M300.89,68.64a4.25,4.25,0,1,1-4.28,4.24A4.26,4.26,0,0,1,300.89,68.64Z" class="cls-10"/></g><circle cx="287.66" cy="59.5" r="3.5" class="cls-9"/></g></g></svg>