<svg xmlns="http://www.w3.org/2000/svg" viewBox="0 0 400 140"><defs><style>.cls-1{fill:#f3f8d6}.cls-1,.cls-8{stroke:#bad80a}.cls-1,.cls-12,.cls-4,.cls-6,.cls-8{stroke-miterlimit:10;stroke-width:2px}.cls-12,.cls-2,.cls-8{fill:#fff}.cls-3{fill:#e5e5e5}.cls-4{fill:none}.cls-12,.cls-4,.cls-6{stroke:#556a8a}.cls-5{fill:#556a8a}.cls-6{fill:#55d2f6}.cls-7{fill:#00bcf2}.cls-9{fill:#ff9f2b}.cls-10{fill:#ff8c00}.cls-11{fill:#2bc7f4}.cls-13{fill:#c6df33}.cls-14{fill:#9273b6}</style></defs><title>nuget-tools-policies</title><g id="ICONS"><g><circle cx="259.5" cy="71" r="53" class="cls-1"/><g><path d="M249.16,37.9a11.53,11.53,0,0,1-.93,4.62,11.7,11.7,0,0,1-2.53,3.77,11.93,11.93,0,0,1-3.77,2.55,11.21,11.21,0,0,1-4.6.94L230.84,49a1.46,1.46,0,0,0-.71,1.15v60.4c0,4.53-2.16,10.57-8.45,10.57h-12l-42.94-12.27v-71a23.47,23.47,0,0,1,.08-2.76,6.63,6.63,0,0,1,.47-1.87,11.9,11.9,0,0,1,6.31-6.33,11.46,11.46,0,0,1,4.6-.94h59.16a11.46,11.46,0,0,1,4.6.94,11.9,11.9,0,0,1,6.31,6.33A11.55,11.55,0,0,1,249.16,37.9Z" class="cls-2"/><path d="M249.6,37.63a11.15,11.15,0,0,1-.93,4.53,11.52,11.52,0,0,1-2.52,3.69,11.74,11.74,0,0,1-3.75,2.49,11.41,11.41,0,0,1-4.57.91s-6.45-.36-6.45.38V50H167.6V36.62a15.66,15.66,0,0,1,.08-1.69,6.5,6.5,0,0,1,.47-1.83,10.68,10.68,0,0,1,1-1.79,11,11,0,0,1,1.55-1.91,3.41,3.41,0,0,1,.36-.31A11.84,11.84,0,0,1,179,26h58.84a11.77,11.77,0,0,1,10.84,7.09A11.15,11.15,0,0,1,249.6,37.63Z" class="cls-3"/><path d="M249,37.82a11.55,11.55,0,0,1-.93,4.61,11.69,11.69,0,0,1-2.52,3.77,11.87,11.87,0,0,1-3.75,2.55,11.11,11.11,0,0,1-4.57.93l-6.45-.77a1.46,1.46,0,0,0-.7,1.15v60.32c0,4.52-2.15,10.56-8.41,10.56h-12L167,108.68V37.82a23.53,23.53,0,0,1,.08-2.76,6.64,6.64,0,0,1,.47-1.87,11.86,11.86,0,0,1,6.27-6.32,11.36,11.36,0,0,1,4.57-.93h58.84a11.36,11.36,0,0,1,4.57.93,11.86,11.86,0,0,1,6.27,6.32A11.57,11.57,0,0,1,249,37.82Z" class="cls-4"/><path d="M236.91,43.06a5.76,5.76,0,0,0,2.32-.46,6,6,0,0,0,3.16-3.16,6,6,0,0,0,0-4.65,6,6,0,0,0-3.16-3.16,6,6,0,0,0-4.65,0,6,6,0,0,0-3.16,3.16,5.76,5.76,0,0,0-.46,2.32l-.58,6.52Z" class="cls-5"/><path d="M216.17,121c-4.51-1.51-7.52-4.35-7.52-12,0-9,9.09-12,8.17-12H168a12,12,0,0,0,0,24.1h47" class="cls-6"/></g><circle cx="125.13" cy="78" r="34" class="cls-7"/><circle cx="164.94" cy="52" r="24" class="cls-8"/><path d="M162.88,60.25a7.84,7.84,0,0,1-.37-1.46,10.4,10.4,0,0,1-.15-1.79,5.61,5.61,0,0,1,.35-2,8,8,0,0,1,.92-1.72A11.41,11.41,0,0,1,165,51.69q.76-.75,1.57-1.52.66-.62,1.26-1.25a9,9,0,0,0,1.07-1.36,7.38,7.38,0,0,0,.75-1.55,5.37,5.37,0,0,0,.29-1.77,4.77,4.77,0,0,0-.41-2,4.26,4.26,0,0,0-1.12-1.48,5,5,0,0,0-1.69-.92,6.71,6.71,0,0,0-2.1-.32,9.16,9.16,0,0,0-3.65.71,10.49,10.49,0,0,0-3.12,2.1V39.18a12.65,12.65,0,0,1,3.35-1.67,12.05,12.05,0,0,1,3.68-.55,10.3,10.3,0,0,1,3.09.45,7.22,7.22,0,0,1,2.49,1.33,6.35,6.35,0,0,1,1.67,2.16,6.83,6.83,0,0,1,.62,3,7.2,7.2,0,0,1-.34,2.26,8.48,8.48,0,0,1-.9,1.91,12,12,0,0,1-1.26,1.65q-.7.77-1.45,1.47-.95.9-1.66,1.62a12,12,0,0,0-1.2,1.37,5.5,5.5,0,0,0-.74,1.34,4.32,4.32,0,0,0-.25,1.52,7.44,7.44,0,0,0,.21,1.83,12.39,12.39,0,0,0,.43,1.4Zm1.36,9.14a2.08,2.08,0,0,1-.79-.15,2,2,0,0,1-.66-.44,2.25,2.25,0,0,1-.46-.67,1.94,1.94,0,0,1-.18-.82,2.14,2.14,0,0,1,.16-.85,2,2,0,0,1,.45-.66,2.21,2.21,0,0,1,.67-.44,2,2,0,0,1,.8-.16,2.14,2.14,0,0,1,.8.15,2.1,2.1,0,0,1,.68.44,2.21,2.21,0,0,1,.47.67,2,2,0,0,1,.18.85,2,2,0,0,1-.18.82,2.2,2.2,0,0,1-.47.67,2.11,2.11,0,0,1-.68.44A2.16,2.16,0,0,1,164.25,69.4Z" class="cls-5"/><g><g><g><path d="M247.15,102.41c-.92.3-1.9.58-2.92.86,6.12-25.42,18.19-20.82,18.19-20.82l2,1.86.07.24C264.89,86.24,266.52,96.27,247.15,102.41Z" class="cls-9"/><path d="M247.15,102.41c6-20.93,16.27-18.2,17.32-17.86C264.89,86.24,266.52,96.27,247.15,102.41Z" class="cls-10"/><polygon points="265.42 89.36 256.86 80.8 263.7 79.09 266.91 82.31 265.42 89.36" class="cls-5"/></g><polygon points="267.12 70.4 244.02 69.55 240.6 66.12 260.28 56.71 268.5 59.8 267.12 70.4" class="cls-5"/><polygon points="276.9 77.38 277.76 100.48 281.18 103.9 290.59 84.22 287.5 76 276.9 77.38" class="cls-5"/><g><path d="M272.29,87.57H272l-.2-.19L259.64,74.67l.05-.3a50.51,50.51,0,0,1,13.86-24.54c11.07-11,36.87-15.64,38-15.83l.84-.15-.14.84s-.45,2.69-1.38,6.6c-2.51,10.57-7,24.68-14.2,31.9C285.47,84.44,273.32,87.57,272.29,87.57Z" class="cls-2"/><path d="M310.18,42.79c-2,8.6-6.49,23.51-14,31.1C285,85.11,272.85,87.45,272.22,87.57l-6.8-6.8s2.17-12.49,13.7-24C286.69,49.27,301.56,44.83,310.18,42.79Z" class="cls-3"/><path d="M289.23,40.47l1.46-.54a126.76,126.76,0,0,1,20.4-5.5l1.38-.23-.23,1.38a126.76,126.76,0,0,1-5.5,20.4l-.54,1.46Z" class="cls-11"/><path d="M272.29,87.57H272l-.2-.19L259.64,74.67l.05-.3a50.51,50.51,0,0,1,13.86-24.54c11.07-11,36.87-15.64,38-15.83l.84-.15-.14.84s-.45,2.69-1.38,6.6c-2.51,10.57-7,24.68-14.2,31.9C285.47,84.44,273.32,87.57,272.29,87.57Z" class="cls-4"/></g></g><circle cx="284.16" cy="61.55" r="6.05" class="cls-12"/></g><path d="M159.13,78a34,34,0,0,1-68,0Z" class="cls-11"/><path d="M125.1,62.92a2.43,2.43,0,0,1-1.75-.71,2.4,2.4,0,0,1-.74-1.8,2.32,2.32,0,0,1,.74-1.76,2.46,2.46,0,0,1,1.75-.7,2.74,2.74,0,0,1,1,.18,2.39,2.39,0,0,1,.81.51,2.51,2.51,0,0,1,.55.78,2.38,2.38,0,0,1,.21,1,2.57,2.57,0,0,1-.19,1,2.35,2.35,0,0,1-.55.81,2.63,2.63,0,0,1-.81.53A2.53,2.53,0,0,1,125.1,62.92ZM123.38,98V70h3.5V98Z" class="cls-2"/><circle cx="86" cy="48" r="12" class="cls-13"/><circle cx="310.5" cy="97" r="12" class="cls-13"/><circle cx="102" cy="25" r="4" class="cls-14"/></g></g></svg>