<svg xmlns="http://www.w3.org/2000/svg" viewBox="0 0 400 140"><defs><style>.cls-1{fill:#c6df33}.cls-2,.cls-5,.cls-9{fill:none}.cls-2{stroke:#58595b}.cls-2,.cls-6,.cls-9{stroke-miterlimit:10;stroke-width:2px}.cls-3{fill:#2bc7f4}.cls-4{fill:#55d2f6;fill-rule:evenodd}.cls-6,.cls-8{fill:#fff}.cls-6,.cls-9{stroke:#556a8a}.cls-7{fill:#556a8a}.cls-10{fill:#e5e5e5}.cls-11{fill:#bad80a}.cls-12{fill:#004880}</style></defs><title>nuget-tools-tools</title><g id="ICONS"><g><circle cx="115.03" cy="71" r="27" class="cls-1" transform="translate(-16.51 102.13) rotate(-45)"/><g><polyline points="100.78 57.25 114.78 71.25 101.28 84.75" class="cls-2"/><line x1="116.03" x2="130.03" y1="82" y2="82" class="cls-2"/></g><g><circle cx="165.03" cy="41" r="27" class="cls-3" transform="translate(19.34 128.7) rotate(-45)"/><path d="M184.12,21.91a27,27,0,0,1,0,38.18L145.94,21.91A27,27,0,0,1,184.12,21.91Z" class="cls-4"/></g><rect width="40" height="40" x="146.78" y="20" class="cls-5"/><path d="M162,22v6l-2.5,2L157,28V22a7.72,7.72,0,0,0-5,7c0,3.1,2,5.37,5,6.26V56.19c0,1.28,1.22,2.85,2.5,2.85s2.5-1.51,2.5-3V35.26c2-.72,5-3.16,5-6.26C167,26.29,164,22.91,162,22Z" class="cls-6"/><path d="M178,43h-4V29l2-2-2.18-6H172L170,27l2,2V43h-4v3h2a3.07,3.07,0,0,1-2,2.63v7.88c0,2.09,1.42,3.49,2.78,3.49h4.44c1.36,0,2.78-1.39,2.78-3.49V48.64A3.07,3.07,0,0,1,176,46h2Z" class="cls-7"/><rect width="1" height="10" x="171.03" y="48" class="cls-8"/><rect width="1" height="10" x="174.03" y="48" class="cls-8"/><g><circle cx="165.03" cy="101" r="27" class="cls-3" transform="translate(-23.08 146.28) rotate(-45)"/><path d="M184.12,81.91a27,27,0,0,1,0,38.18L145.94,81.91A27,27,0,0,1,184.12,81.91Z" class="cls-4"/></g><g><path d="M148,88v28h34V88Z" class="cls-6"/><path d="M165,114a3.18,3.18,0,0,0-3.13-2H153V84h8.87A3.24,3.24,0,0,1,165,86a3.24,3.24,0,0,1,3.13-2H177v28h-8.87A3.18,3.18,0,0,0,165,114Z" class="cls-8"/><path d="M166,85.21v28.18l-.25.15L165,114l-.75-.46-.25-.15V85.2Z" class="cls-3"/><path d="M165,114a3.18,3.18,0,0,0-3.13-2H153V84h8.87A3.24,3.24,0,0,1,165,86a3.24,3.24,0,0,1,3.13-2H177v28h-8.87A3.18,3.18,0,0,0,165,114Z" class="cls-9"/><rect width="3" height="26" x="154.03" y="85" class="cls-10"/><rect width="3" height="26" x="173.03" y="85" class="cls-10"/></g><path d="M223.3,54.66V34q0-10.06-4.24-14.43t-12.59-4.7v2.19c5.65.42,9.36,2.79,11,4.77,2.58,3.08,2.94,8.16,2.94,14.08V55.19q0,14.53,9.6,17.49v.26q-9.6,3-9.6,18.48v18.15c.28,5.78-.46,10-2.44,12.86-2.19,3.2-5.32,5.5-11.52,5.43v2.75q8.35-.33,12.59-4.7t4.24-14.43V91.94q0-15.58,10.19-17.1V70.64Q223.3,69.2,223.3,54.66Z" class="cls-11"/></g><rect width="51" height="50.48" x="247" y="46" class="cls-12" rx="15.14" ry="15.14"/><g><g><path d="M291.9,80.31a10.72,10.72,0,1,1-10.72-10.77A10.77,10.77,0,0,1,291.9,80.31Z" class="cls-8"/><path d="M259.95,53.13a6.72,6.72,0,1,1-6.76,6.71A6.73,6.73,0,0,1,259.95,53.13Z" class="cls-8"/></g><circle cx="239.05" cy="39.33" r="5.33" class="cls-12"/></g></g></svg>