<svg xmlns="http://www.w3.org/2000/svg" viewBox="0 0 400 140"><defs><style>.cls-1,.cls-5{fill:#fff}.cls-2{fill:#aae9fb}.cls-3{fill:#55d2f6}.cls-4{fill:#00bcf2}.cls-10,.cls-5{stroke:#556a8a;stroke-miterlimit:10;stroke-width:2px}.cls-6{fill:#e5e5e5}.cls-7{fill:#556a8a}.cls-8{fill:#2bc7f4}.cls-10,.cls-9{fill:none}.cls-11{fill:#ffc52b}</style></defs><title>nuget-get-started-host-packages</title><g id="ICONS"><g><path d="M307.44,40a1.85,1.85,0,0,0,.11-2.45L304.28,34a2.18,2.18,0,0,0-2.45-.11l-5.57,3.68c-1.19-.79-2.61-1.84-3.81-2.63l1.79-6.79a1.67,1.67,0,0,0-.89-2l-4.08-1.9a1.55,1.55,0,0,0-2.24.63l-4,6a14.29,14.29,0,0,0-4.36-1.18L278,22.7a1.67,1.67,0,0,0-1.64-1.79l-4.66,0c-.72-.28-1.49.43-1.77,1.15l-1.55,7a14.42,14.42,0,0,0-4.45.78l-3.39-6.29a2.47,2.47,0,0,0-2.17-.83l-4.5,1.76a1.67,1.67,0,0,0-1.07,1.91l1.41,6.69c-1.26.68-2.54,1.85-3.8,2.53L245,31.27a1.59,1.59,0,0,0-2.22.14l-3.33,3a1.59,1.59,0,0,0-.35,2.19l3.9,5.82c-1,1.42-2.33,2.59-2.89,4l-6.77-2.27a2.14,2.14,0,0,0-2.26,1.12l-1.91,4.09a2.12,2.12,0,0,0,.87,2.49l5.72,3.69c-.56,1.45-.63,2.92-1.18,4.36l-6.9.67a2.14,2.14,0,0,0-1.56,1.89l-.2,4.41a2.13,2.13,0,0,0,1.38,2l7.07,1.06a28.91,28.91,0,0,0,.75,4.94l-6.29,3.4a1.55,1.55,0,0,0-.84,2.17l1.52,4.24a2.29,2.29,0,0,0,2.15,1.32l6.95-1.65,2,3.77-4.42,5.45a2.3,2.3,0,0,0,.14,2.21l3.27,3.58a1.86,1.86,0,0,0,2.19.34l5.83-3.91c1.19.79,2.61,1.84,3.81,2.63l-1.78,6.79a1.67,1.67,0,0,0,.89,2l4.32,2.16a2.1,2.1,0,0,0,2.24-.64l3.7-5.72c1.47.06,2.92.62,4.39.69l.41,7.14a2.13,2.13,0,0,0,1.89,1.56l4.64.46a3,3,0,0,0,1.79-1.64l1.3-6.81c1.73-.17,3.22-.59,4.94-.76l3.16,6a1.68,1.68,0,0,0,2.17.84l4.24-1.52A2,2,0,0,0,291.1,107l-1.41-6.69a17.62,17.62,0,0,0,3.8-2.53l5.44,4.42a1.64,1.64,0,0,0,2.45.11l3.33-3a1.64,1.64,0,0,0,.11-2.45L300.92,91a12.24,12.24,0,0,0,2.89-4l6.77,2.27a1.67,1.67,0,0,0,2-.89L314.74,84a2.47,2.47,0,0,0-.63-2.24l-6-3.95a12.51,12.51,0,0,0,.93-4.13l7.16-.9c.75-.21,1.51-.91,1.54-1.4l.23-4.9a1.67,1.67,0,0,0-1.64-1.79l-6.81-1.29a26.72,26.72,0,0,0-.52-4.69l5.8-3.42a1.79,1.79,0,0,0,1.09-2.4l-1.52-4.24a1.54,1.54,0,0,0-2.17-.84L305.31,49l-2-3.77L307.44,40m-30.22,22a7.11,7.11,0,0,1-.47,10.29,7,7,0,0,1-10-.7,7.11,7.11,0,1,1,10.5-9.59" class="cls-1"/><path d="M259.66,123.91H155.58c-10,0-16.25-.08-20.9-.49l-.9-.09a33,33,0,0,1-10.59-2.9l-.55-.23a35.79,35.79,0,0,1,22.57-67.43A38.89,38.89,0,0,1,181.47,27a37.82,37.82,0,0,1,16.8,3.94A37.46,37.46,0,0,1,230.12,13c18.56,0,34.47,14.18,37.38,32.77,17.62,3.71,30.59,19.81,30.59,38.59s-13,35.06-30.92,38.66A32.42,32.42,0,0,1,259.66,123.91Z" class="cls-2"/><polygon points="252 37 164 37 164 53 169 53 169 102.1 247 102.1 247 53 252 53 252 37" class="cls-3"/><polygon points="255 40 167 40 167 56 172 56 172 105.1 250 105.1 250 56 255 56 255 40" class="cls-4"/><g><g><rect width="78" height="61" x="175" y="47.1" class="cls-5"/><rect width="8" height="52" x="176" y="55" class="cls-6"/><rect width="8" height="52" x="244" y="55" class="cls-6"/><rect width="88" height="16" x="170" y="43" class="cls-7"/></g><rect width="32" height="3" x="198" y="67" class="cls-7"/></g><g><rect width="53" height="91" x="82" y="26" class="cls-5"/><g><rect width="26" height="89" x="108" y="27" class="cls-6"/><rect width="24" height="3" x="84" y="49" class="cls-8"/><polygon points="120 35 84 35 84 38 120 38 120 35 120 35" class="cls-9"/><polyline points="120 35 84 35 84 38 120 38 120 35" class="cls-9"/><rect width="24" height="3" x="84" y="42" class="cls-8"/><rect width="24" height="3" x="84" y="35" class="cls-8"/><rect width="26" height="3" x="108" y="49" class="cls-7"/><rect width="26" height="3" x="108" y="42" class="cls-7"/><rect width="26" height="3" x="108" y="35" class="cls-7"/></g><rect width="3" height="3" x="83" y="35" class="cls-7"/><rect width="3" height="3" x="83" y="42" class="cls-7"/><rect width="3" height="3" x="83" y="49" class="cls-7"/></g><g><rect width="27" height="36" x="155" y="61" class="cls-10" rx="12" ry="12"/><path d="M191,85v32a2,2,0,0,1-2,2H149a2,2,0,0,1-2-2V85a2,2,0,0,1,2-2H189A2,2,0,0,1,191,85Z" class="cls-1"/><path d="M191,85v31L158,83h31A2,2,0,0,1,191,85Z" class="cls-11"/><path d="M191,117a2,2,0,0,1-2,2H149a2,2,0,0,1-2-2V85a2,2,0,0,1,2-2H189a2,2,0,0,1,2,2Z" class="cls-10"/></g></g></g></svg>