<svg xmlns="http://www.w3.org/2000/svg" viewBox="0 0 400 140"><defs><style>.cls-1{fill:#556a8a}.cls-2{fill:#adbdca}.cls-3,.cls-6{fill:#fff}.cls-4{fill:#e5e5e5}.cls-5{fill:none}.cls-5,.cls-6{stroke:#556a8a;stroke-miterlimit:10;stroke-width:2px}.cls-7{fill:#00bcf2}.cls-8{fill:#5c2d91}</style></defs><title>nuget-tools-vs-extensibility</title><g id="Titles"><g><g><g><polygon points="239.25 130 122.25 130 129.57 122 232.4 122 239.25 130" class="cls-1"/><polygon points="228.25 128 133.25 128 136.59 124 225.01 124 228.25 128" class="cls-2"/><polygon points="206.25 110 154.25 110 148.25 117 212.25 117 206.25 110" class="cls-1"/><polygon points="183.75 115 176.75 115 178.15 101 182.35 101 183.75 115" class="cls-1"/><rect width="150" height="82" x="105" y="20.5" class="cls-3" rx="4" ry="4" transform="translate(360 123) rotate(180)"/><path d="M254.5,24V36h-150V24a4,4,0,0,1,4-4H250.53A4,4,0,0,1,254.5,24Z" class="cls-4"/><rect width="150" height="82" x="105" y="20" class="cls-5" rx="4" ry="4" transform="translate(360 122) rotate(180)"/></g><g><g><rect width="62" height="48" x="149" y="44" class="cls-6"/><rect width="6" height="38" x="150" y="53" class="cls-4"/><rect width="6" height="38" x="204" y="53" class="cls-4"/><rect width="70" height="12" x="145" y="41" class="cls-7"/></g><rect width="22" height="2" x="169" y="60" class="cls-1"/></g></g><path d="M279.5,35,254.1,60.4,237.9,47.8,231.5,51V83l6.4,3.2,16.2-12.6L279.5,99l16-6.4V41.4Zm-42,41.6V57.4l9.6,9.6Zm42,3.56L262.59,67,279.5,53.84Z" class="cls-8"/></g></g></svg>