<svg xmlns="http://www.w3.org/2000/svg" viewBox="0 0 400 140"><defs><style>.cls-1{fill:#80def9}.cls-2,.cls-4,.cls-5{fill:#fff}.cls-2{stroke:#bad80a}.cls-10,.cls-13,.cls-2,.cls-5,.cls-8,.cls-9{stroke-miterlimit:10}.cls-10,.cls-13,.cls-2,.cls-5{stroke-width:2px}.cls-3{fill:#3a96dd}.cls-13,.cls-5,.cls-8{stroke:#556a8a}.cls-6{fill:#e5e5e5}.cls-7{fill:#556a8a}.cls-10,.cls-11,.cls-13,.cls-8,.cls-9{fill:none}.cls-9{stroke:#757575}.cls-10{stroke:#e6e7e8}.cls-12{fill:#58595b}</style></defs><title>nuget-get-started-guides</title><g id="ICONS"><path d="M248.38,62.46a39.37,39.37,0,0,0-77.71-1.23,26.79,26.79,0,0,0-43,13.62A23.42,23.42,0,1,0,122.08,121H253.85c13.37-2.71,23.43-15.12,23.43-29.28A29.27,29.27,0,0,0,248.38,62.46Z" class="cls-1"/><path d="M305.6,45.44v-.5a20,20,0,0,0-.65-5,18,18,0,0,0-29.54-12.77C271,21.71,265.46,19,258,19c-13.15,0-23.08,11.48-23.3,24.41,0,.89.22,1.56.22,2.45C228,49.18,224,55,224,62.34c0,10.52,8.27,18.94,19.23,19.56C244.24,89.2,250.79,96,262,96c9.46,0,15.1.76,22-7a23.25,23.25,0,0,0,11,3c13.25,0,24-11.75,24-25A24,24,0,0,0,305.6,45.44Z" class="cls-2"/><path d="M289,62h-4V44l2-3-2-9h-4l-2,9,2,3V62h-4v4h3c0,1.61-2.14,3.69-3,3.76v10c0,2.65,1.68,5.27,3.43,5.27h5.14c1.75,0,3.43-3,3.43-5.67V69.69c-.86,0-3-2.09-3-3.69h3Z" class="cls-3"/><rect width="2" height="15" x="280" y="68" class="cls-4"/><rect width="2" height="15" x="284" y="68" class="cls-4"/><path d="M273,40.42a10.39,10.39,0,0,0-6-9.55V37.8L262,41l-4-3.2V30.87A10.59,10.59,0,0,0,258,50V80.67a3.62,3.62,0,0,0,3.63,3.5h.88a3.51,3.51,0,0,0,3.5-3.5V50.31A10.49,10.49,0,0,0,273,40.42Z" class="cls-5"/><g><g><rect width="62" height="48" x="146" y="54" class="cls-5"/><rect width="6" height="38" x="147" y="63" class="cls-6"/><rect width="6" height="38" x="201" y="63" class="cls-6"/><rect width="70" height="12" x="142" y="51" class="cls-7"/></g><rect width="22" height="2" x="166" y="70" class="cls-7"/></g><g><g><g><polyline points="111.01 21.45 117.92 14.54 160.86 14.54 167.45 21.13" class="cls-8"/><line x1="127.5" x2="127.5" y1="20.29" y2="14.79" class="cls-8"/><line x1="120.5" x2="120.5" y1="20.29" y2="14.79" class="cls-8"/><line x1="134.5" x2="134.5" y1="20.25" y2="14.75" class="cls-8"/><line x1="148.5" x2="148.5" y1="20.25" y2="14.75" class="cls-8"/><line x1="141.5" x2="141.5" y1="20.25" y2="14.75" class="cls-8"/><line x1="155.5" x2="155.5" y1="20.25" y2="14.75" class="cls-8"/><line x1="100.5" x2="100.5" y1="6" y2="20.5" class="cls-8"/><line x1="100.41" x2="113" y1="7.17" y2="21" class="cls-8"/><rect width="1" height="88" x="98" y="30" class="cls-7"/><rect width="1" height="86" x="109" y="31" class="cls-7"/><g><line x1="99" x2="109" y1="41" y2="50" class="cls-8"/><line x1="109" x2="99" y1="41" y2="50" class="cls-8"/></g><g><line x1="99" x2="109" y1="31" y2="40" class="cls-8"/><line x1="109" x2="99" y1="31" y2="40" class="cls-8"/></g><g><line x1="109" x2="99" y1="60" y2="51" class="cls-8"/><line x1="109" x2="99" y1="51" y2="60" class="cls-8"/></g><g><line x1="99" x2="109" y1="61" y2="70" class="cls-8"/><line x1="109" x2="99" y1="61" y2="70" class="cls-8"/></g><g><line x1="99" x2="109" y1="71" y2="80" class="cls-8"/><line x1="109" x2="99" y1="71" y2="80" class="cls-8"/></g><g><line x1="99" x2="109" y1="81" y2="90" class="cls-8"/><line x1="109" x2="99" y1="81" y2="90" class="cls-8"/></g><g><line x1="99" x2="109" y1="91" y2="100" class="cls-8"/><line x1="109" x2="99" y1="91" y2="100" class="cls-8"/></g><g><line x1="99" x2="109" y1="101" y2="110" class="cls-8"/><line x1="109" x2="99" y1="101" y2="110" class="cls-8"/></g><polyline points="121 15 127.5 20 134.5 15 141.5 20 148.5 15 155.5 20 161 15" class="cls-8"/><rect width="101" height="1.96" x="82" y="20.02" class="cls-7"/><path d="M178.3,21a.72.72,0,0,0-.7.62v.28H172.4v-.28a.7.7,0,0,0-1.4,0V26h8V21.62A.72.72,0,0,0,178.3,21Z" class="cls-7"/><polyline points="84.56 19.11 100.54 6.83 147.61 14.56" class="cls-8"/><rect width="6" height="11" x="80" y="18" class="cls-7"/><line x1="99" x2="109" y1="50.5" y2="50.5" class="cls-8"/><line x1="99" x2="109" y1="40.5" y2="40.5" class="cls-8"/><line x1="99" x2="109" y1="30.5" y2="30.5" class="cls-9"/><polygon points="111.44 21 97.09 21 97.09 31 111.44 31 114 26 111.44 21" class="cls-7"/><line x1="104" x2="104" y1="23" y2="29" class="cls-10"/><line x1="108" x2="108" y1="23" y2="29" class="cls-10"/><line x1="99" x2="109" y1="60.5" y2="60.5" class="cls-8"/><line x1="99" x2="109" y1="70.5" y2="70.5" class="cls-8"/><line x1="99" x2="109" y1="80.5" y2="80.5" class="cls-8"/><line x1="99" x2="109" y1="90.5" y2="90.5" class="cls-8"/><line x1="99" x2="109" y1="100.5" y2="100.5" class="cls-8"/><g><line x1="99" x2="109" y1="109.5" y2="118.5" class="cls-9"/><line x1="109" x2="99" y1="109.5" y2="118.5" class="cls-9"/></g><line x1="99" x2="109" y1="119.5" y2="119.5" class="cls-9"/></g><rect width="111" height="136" x="67" class="cls-11"/></g><polygon points="128 122 80 122 82.58 116 85.15 110 122.85 110 125.43 116 128 122" class="cls-12"/><polygon points="128 122 80 122 82.58 116 125.43 116 128 122" class="cls-7"/></g><line x1="175" x2="175" y1="24" y2="59" class="cls-13"/></g></svg>