<svg xmlns="http://www.w3.org/2000/svg" viewBox="0 0 400 140"><defs><style>.cls-1{fill:#55d2f6}.cls-2,.cls-7{fill:#fff}.cls-2,.cls-5{stroke:#556a8a}.cls-2,.cls-4,.cls-5,.cls-9{stroke-miterlimit:10;stroke-width:2px}.cls-3{fill:#9273b6}.cls-4{fill:#f1f2f2;stroke:#c6df33}.cls-5,.cls-9{fill:none}.cls-6{fill:#556a8a}.cls-8{fill:#e6e7e8}.cls-9{stroke:#2bc7f4}</style></defs><title>nuget-tools-api</title><g id="ICONS"><g><path d="M147.19,74.29l-5.73-1.09a22.94,22.94,0,0,0-.44-3.95l4.88-2.88a1.51,1.51,0,0,0,.92-2l-1.29-3.57a1.3,1.3,0,0,0-1.83-.7l-5.83,1-1.72-3.18,3.51-4.4a1.55,1.55,0,0,0,.09-2.06l-2.75-3a1.86,1.86,0,0,0-2.07-.09l-4.7,3.09c-1-.66-2.2-1.54-3.2-2.21l1.51-5.72a1.42,1.42,0,0,0-.75-1.69l-3.44-1.6a1.31,1.31,0,0,0-1.89.53l-3.33,5a11.89,11.89,0,0,0-3.67-1l-.56-5.81a1.42,1.42,0,0,0-1.37-1.52l-3.93,0c-.62-.23-1.27.36-1.5,1l-1.31,5.94A12.23,12.23,0,0,0,103,45l-2.86-5.29a2.09,2.09,0,0,0-1.83-.7l-3.8,1.49a1.4,1.4,0,0,0-.9,1.61l1.19,5.64c-1.06.57-2.13,1.55-3.2,2.13l-4.59-3.73a1.34,1.34,0,0,0-1.86.12l-1.8,1.64-1,.92,0,0a1.33,1.33,0,0,0-.26,1.82l3.29,4.91A17,17,0,0,0,83,59l-5.7-1.91a1.83,1.83,0,0,0-1.91.95l-1.61,3.44a1.79,1.79,0,0,0,.74,2.1l4.82,3.11c-.47,1.22-.53,2.46-1,3.68l-5.81.56a1.81,1.81,0,0,0-1.32,1.6L71,76.21a1.8,1.8,0,0,0,1.15,1.72l6,.89A23.89,23.89,0,0,0,78.75,83l-5.3,2.86a1.31,1.31,0,0,0-.7,1.84L74,91.25a1.93,1.93,0,0,0,1.82,1.11L81.69,91l1.72,3.18-3.73,4.59a2,2,0,0,0,.12,1.87l2.76,3a1.56,1.56,0,0,0,1.84.3l4.92-3.3c1,.67,2.2,1.55,3.2,2.21L91,108.56a1.38,1.38,0,0,0,.75,1.68l3.63,1.83a1.78,1.78,0,0,0,1.89-.54l3.11-4.83c1.24.06,2.46.53,3.7.58l.34,6a1.8,1.8,0,0,0,1.59,1.31L110,115a2.49,2.49,0,0,0,1.51-1.37l1.1-5.74c1.45-.14,2.71-.51,4.16-.64l2.66,5.08a1.42,1.42,0,0,0,1.84.7l3.56-1.29a1.69,1.69,0,0,0,1.12-1.81l-1.19-5.63a14.47,14.47,0,0,0,3.2-2.13l4.59,3.73a1.39,1.39,0,0,0,2.07.09l2.57-2.35.23-.21a1.46,1.46,0,0,0,.51-1,1.42,1.42,0,0,0-.42-1l-3.29-4.92a10.17,10.17,0,0,0,2.43-3.4L142.32,95a1.41,1.41,0,0,0,1.68-.75l1.83-3.64a2.09,2.09,0,0,0-.54-1.89l-5-3.32a10.39,10.39,0,0,0,.78-3.49l6-.76c.63-.18,1.28-.77,1.3-1.19l.19-4.12A1.41,1.41,0,0,0,147.19,74.29Zm-37.69,11a9.9,9.9,0,1,1,9.9-9.9A9.9,9.9,0,0,1,109.5,85.3Z" class="cls-1"/><path d="M238.91,62.69a39.37,39.37,0,0,0-77.71-1.23,26.79,26.79,0,0,0-43,13.62,23.42,23.42,0,1,0-5.56,46.16H244.38c13.37-2.71,23.43-15.12,23.43-29.28A29.27,29.27,0,0,0,238.91,62.69Z" class="cls-2"/><path d="M135,18.84l1.44,2.41c.48,1,.48,1.44,0,1.92l-.72,1.44a1.73,1.73,0,0,1-1.69,1l-2.89-.24a1,1,0,0,0-1,1l-.24,2.17a1.32,1.32,0,0,0,.72,1.2l2.89.48a1.53,1.53,0,0,1,1.21,1.44,15.22,15.22,0,0,1,.48,1.68c.24.48.24,1-.48,1.68l-2.17,1.93a1.08,1.08,0,0,0,0,1.2L134,40a1.06,1.06,0,0,0,1.21.24l2.41-1.44a1.51,1.51,0,0,1,1.93-.24c.48.48,1,.72,1.21,1,.72,0,1,.48,1,1.44v2.89a1.5,1.5,0,0,0,.72,1.2l2.41.24a1.32,1.32,0,0,0,1.2-.72l.48-2.89A1.79,1.79,0,0,1,148,40.26c.48,0,1-.24,1.45-.24.48-.24,1-.24,1.68.48l2.17,1.92a.84.84,0,0,0,1.2.24l1.93-1.44a1.05,1.05,0,0,0,.24-1.2L155,37.61a1.79,1.79,0,0,1,0-1.92v-.24a5.27,5.27,0,0,0,.72-1.2,1.74,1.74,0,0,1,1.69-1l2.89.24a1,1,0,0,0,1-1l.48-2.17a1.23,1.23,0,0,0-1-1.2l-2.65-.48a2.73,2.73,0,0,1-1.44-1.44c0-.48-.24-1-.24-1.44a1.62,1.62,0,0,1,.48-1.92L158.82,22a.84.84,0,0,0,.24-1.2l-1.45-1.93a1.35,1.35,0,0,0-1.44-.24L154,20a1.5,1.5,0,0,1-2.17,0,1.84,1.84,0,0,0-1.21-.48v-.24a1.39,1.39,0,0,1-1-1.44V15c0-.72-.48-1.2-.72-1.2l-2.41-.24a1.29,1.29,0,0,0-1,.72l-.72,2.89a1.91,1.91,0,0,1-1.21,1.44c-.48,0-1,.24-1.44.24a1.58,1.58,0,0,1-1.93-.48l-1.93-1.92a1.14,1.14,0,0,0-1.45-.24l-1.68,1.44a1.06,1.06,0,0,0-.24,1.2m15.41,7A5.79,5.79,0,0,1,149.19,34a5.72,5.72,0,0,1-7.95-1,5.56,5.56,0,0,1,1-8.18,6,6,0,0,1,8.19,1" class="cls-3"/><circle cx="280.81" cy="68" r="46" class="cls-4"/><g><path d="M264.68,91.59a18,18,0,1,0-.27-20.81" class="cls-5"/><polyline points="272 82 253 82 253 43 309 43 309 82 298 82" class="cls-5"/><circle cx="280.81" cy="82" r="9" class="cls-6"/></g><g><g><path d="M212.1,102.09V50.23A2.14,2.14,0,0,0,210,48.09H134.25a2.14,2.14,0,0,0-2.15,2.14v51.86Z" class="cls-7"/><rect width="11" height="52" x="132.19" y="49" class="cls-8"/><rect width="11" height="52" x="201.19" y="49" class="cls-8"/><path d="M212.1,102.09V50.23A2.14,2.14,0,0,0,210,48.09H134.25a2.14,2.14,0,0,0-2.15,2.14v51.86Z" class="cls-5"/><path d="M219.55,105H125.79c-3.13,0-3.64-4-3.64-4h101S222,105,219.55,105Z" class="cls-6"/></g><polyline points="161.69 65.5 152.19 75 161.19 84" class="cls-9"/><polyline points="182.69 65.5 192.19 75 183.19 84" class="cls-9"/><line x1="164.19" x2="177.19" y1="92" y2="61" class="cls-9"/></g></g></g></svg>