<svg xmlns="http://www.w3.org/2000/svg" viewBox="0 0 400 140"><defs><style>.cls-1,.cls-7{fill:#fff}.cls-1,.cls-11,.cls-9{stroke:#556a8a;stroke-miterlimit:10;stroke-width:2px}.cls-2{fill:#e5e5e5}.cls-3{fill:#556a8a}.cls-4{fill:#2bc7f4}.cls-11,.cls-5,.cls-9{fill:none}.cls-6{fill:#adbdca}.cls-8{fill:#c8edfb}.cls-10{fill:#d1d3d4}.cls-11{stroke-dasharray:3 3}.cls-12{fill:#00bcf2}</style></defs><title>nuget-get-started-consume-packages</title><g id="ICONS"><g><g><g><g><rect width="27" height="20" x="288" y="68" class="cls-1"/><rect width="3" height="17" x="289" y="70" class="cls-2"/><rect width="3" height="17" x="311" y="70" class="cls-2"/><rect width="33" height="5" x="285" y="65" class="cls-3"/></g><rect width="9" height="2" x="297" y="74" class="cls-3"/></g><g><g><rect width="27" height="20" x="275" y="30" class="cls-1"/><rect width="3" height="17" x="276" y="32" class="cls-2"/><rect width="3" height="17" x="298" y="32" class="cls-2"/><rect width="33" height="5" x="272" y="27" class="cls-3"/></g><rect width="9" height="2" x="284" y="36" class="cls-3"/></g><g><rect width="53" height="91" x="81" y="31" class="cls-1"/><g><rect width="26" height="89" x="107" y="32" class="cls-2"/><rect width="24" height="3" x="83" y="53" class="cls-4"/><polygon points="119 39 83 39 83 42 119 42 119 39 119 39" class="cls-5"/><polyline points="119 39 83 39 83 42 119 42 119 39" class="cls-5"/><rect width="24" height="3" x="83" y="46" class="cls-4"/><rect width="24" height="3" x="83" y="39" class="cls-4"/><rect width="26" height="3" x="107" y="53" class="cls-3"/><rect width="26" height="3" x="107" y="46" class="cls-3"/><rect width="26" height="3" x="107" y="39" class="cls-3"/></g><rect width="3" height="3" x="82" y="39" class="cls-3"/><rect width="3" height="3" x="82" y="46" class="cls-3"/><rect width="3" height="3" x="82" y="53" class="cls-3"/></g><g><g><polygon points="221.42 123 137.18 123 142.45 117.59 216.49 117.59 221.42 123" class="cls-3"/><polygon points="213.5 121 145.1 121 147.5 119 211.17 119 213.5 121" class="cls-6"/><polygon points="197.94 110 160.56 110 156.25 114 202.25 114 197.94 110" class="cls-3"/><polygon points="181.46 111.19 176.42 111.19 177.43 101.11 180.45 101.11 181.46 111.19" class="cls-3"/><rect width="109" height="59" x="124" y="44" class="cls-7" rx="4" ry="4" transform="translate(357 147) rotate(180)"/><path d="M233.5,58.25v-10a4,4,0,0,0-4-4h-101a4,4,0,0,0-4,4v10Z" class="cls-8"/><rect width="109" height="59" x="124" y="44" class="cls-9" rx="4" ry="4" transform="translate(357 147) rotate(180)"/></g><rect width="127" height="91" x="115.75" y="38.75" class="cls-5"/></g><circle cx="179" cy="77" r="14" class="cls-10"/><polyline points="239.5 17.25 179.5 77.25 285.5 77.25" class="cls-11"/><g><g><rect width="27" height="20" x="214" y="13" class="cls-1"/><rect width="3" height="17" x="215" y="15" class="cls-2"/><rect width="3" height="17" x="237" y="15" class="cls-2"/><rect width="33" height="5" x="211" y="10" class="cls-3"/></g><rect width="9" height="2" x="223" y="19" class="cls-3"/></g><line x1="179.5" x2="272.5" y1="77.25" y2="40.25" class="cls-11"/></g><circle cx="179" cy="77" r="5" class="cls-12"/></g></g></svg>